<svg width="160" height="30" viewBox="0 0 160 30" fill="none" xmlns="http://www.w3.org/2000/svg">
<path fill-rule="evenodd" clip-rule="evenodd" d="M103.784 9.8752C102.919 9.3184 101.885 9.04 100.681 9.04C99.3836 9.04 98.2225 9.3712 97.1976 10.0336C96.1728 10.696 95.3642 11.6464 94.7719 12.8848C94.1795 14.1232 93.8834 15.5872 93.8834 17.2768C93.8834 18.9472 94.1795 20.4064 94.7719 21.6544C95.3642 22.9024 96.1728 23.8576 97.1976 24.52C98.2225 25.1824 99.3836 25.5136 100.681 25.5136C101.885 25.5136 102.919 25.2352 103.784 24.6784C104.649 24.1216 105.279 23.3632 105.674 22.4032V25.312H110.497V4H105.674V12.1504C105.279 11.1904 104.649 10.432 103.784 9.8752ZM51.7711 25.312V18.1696H54.761C56.3217 18.1696 57.6474 17.8864 58.7381 17.32C59.8287 16.7536 60.6514 15.976 61.2062 14.9872C61.7609 13.9984 62.0382 12.8704 62.0382 11.6032C62.0382 9.56799 61.4177 7.95041 60.1766 6.7504C58.9355 5.55039 57.1303 4.9504 54.761 4.9504H46.9478V25.312H51.7711ZM57.1304 11.6032C57.1304 13.3504 56.162 14.224 54.2251 14.224H51.7712V8.9248H54.2251C56.162 8.9248 57.1304 9.8176 57.1304 11.6032ZM69.2311 12.2656C69.8328 11.2864 70.6085 10.5089 71.5581 9.93285C72.5078 9.35684 73.5373 9.06885 74.6468 9.06885V14.3392H73.2646C71.9859 14.3392 70.994 14.6176 70.2888 15.1744C69.5837 15.7313 69.2311 16.672 69.2311 17.9968V25.312H64.4078V9.24165H69.2311V12.2656ZM88.2281 10.0336C86.9964 9.37124 85.6002 9.04004 84.0395 9.04004C82.4787 9.04004 81.0778 9.37124 79.8367 10.0336C78.5956 10.696 77.6225 11.6512 76.9173 12.8992C76.2121 14.1472 75.8596 15.6064 75.8596 17.2768C75.8596 18.9472 76.2121 20.4064 76.9173 21.6544C77.6225 22.9024 78.5956 23.8576 79.8367 24.52C81.0778 25.1824 82.4787 25.5136 84.0395 25.5136C85.6002 25.5136 86.9964 25.1824 88.2281 24.52C89.4598 23.8576 90.4282 22.9024 91.1334 21.6544C91.8386 20.4064 92.1911 18.9472 92.1911 17.2768C92.1911 15.6064 91.8386 14.1472 91.1334 12.8992C90.4282 11.6512 89.4598 10.696 88.2281 10.0336ZM84.0393 13.3022C83.1179 13.3022 82.3422 13.643 81.7122 14.3246C81.0823 15.0062 80.7673 15.9902 80.7673 17.2766C80.7673 18.5631 81.0823 19.5422 81.7122 20.2142C82.3422 20.8862 83.1179 21.2222 84.0393 21.2222C84.9607 21.2222 85.7317 20.8862 86.3522 20.2142C86.9728 19.5422 87.283 18.5631 87.283 17.2766C87.283 15.9902 86.9728 15.0062 86.3522 14.3246C85.7317 13.643 84.9607 13.3022 84.0393 13.3022ZM102.233 13.3599C101.198 13.3599 100.366 13.7055 99.7363 14.3967C99.1064 15.0879 98.7914 16.0479 98.7914 17.2767C98.7914 18.5055 99.1064 19.4655 99.7363 20.1567C100.366 20.8479 101.198 21.1935 102.233 21.1935C103.248 21.1935 104.08 20.8383 104.729 20.1279C105.378 19.4175 105.702 18.4671 105.702 17.2767C105.702 16.0671 105.378 15.1119 104.729 14.4111C104.08 13.7103 103.248 13.3599 102.233 13.3599ZM129.48 25.3121V9.2417H124.629V17.7665C124.629 18.9377 124.347 19.8401 123.783 20.4737C123.218 21.1073 122.447 21.4241 121.47 21.4241C120.529 21.4241 119.782 21.1217 119.227 20.5169C118.672 19.9121 118.395 19.0625 118.395 17.9681V9.2417H113.6V18.5729C113.6 20.7233 114.131 22.4129 115.194 23.6417C116.256 24.8705 117.69 25.4849 119.495 25.4849C120.68 25.4849 121.719 25.2065 122.612 24.6497C123.505 24.0929 124.177 23.3441 124.629 22.4033V25.3121H129.48ZM139.917 9.04004C141.948 9.04004 143.649 9.61123 145.022 10.7536C146.395 11.896 147.26 13.4656 147.617 15.4624H142.512C142.361 14.7712 142.051 14.2336 141.581 13.8496C141.111 13.4656 140.518 13.2736 139.804 13.2736C138.958 13.2736 138.262 13.6144 137.717 14.296C137.171 14.9776 136.899 15.9712 136.899 17.2768C136.899 18.5824 137.171 19.576 137.717 20.2576C138.262 20.9392 138.958 21.28 139.804 21.28C140.518 21.28 141.111 21.088 141.581 20.704C142.051 20.32 142.361 19.7824 142.512 19.0912H147.617C147.26 21.088 146.395 22.6576 145.022 23.8C143.649 24.9424 141.948 25.5136 139.917 25.5136C138.375 25.5136 137.007 25.1824 135.813 24.52C134.619 23.8576 133.683 22.9024 133.006 21.6544C132.329 20.4064 131.991 18.9472 131.991 17.2768C131.991 15.5872 132.324 14.1232 132.992 12.8848C133.66 11.6464 134.595 10.696 135.799 10.0336C137.002 9.37124 138.375 9.04004 139.917 9.04004ZM159.04 25.3119V21.0783H157.517C156.915 21.0783 156.488 20.9535 156.234 20.7039C155.98 20.4543 155.853 20.0127 155.853 19.3791V13.3887H159.012V9.2415H155.853V5.2959H151.03V9.2415H148.914V13.3887H151.03V19.2927C151.03 21.4431 151.542 22.9839 152.567 23.9151C153.592 24.8463 155.026 25.3119 156.868 25.3119H159.04Z" fill="white"/>
<path fill-rule="evenodd" clip-rule="evenodd" d="M2.45151 27.5668C1.10318 27.5668 1.28656e-07 26.4389 1.19284e-07 25.0603L5.97056e-08 16.2971L6.17055 16.2971L6.17055 16.2877L9.8796 16.2877C10.8357 16.2627 11.6447 15.4105 11.6447 14.4079C11.6447 13.3802 10.8112 12.5281 9.80605 12.5281L4.90303 12.5281L4.90303 12.5293L3.40895e-08 12.5293L1.7041e-08 10.0216C7.66869e-09 8.64304 1.10318 7.51514 2.45151 7.51514L9.80605 7.51514C11.6692 7.51514 13.2627 8.19188 14.562 9.54537C15.8858 10.8738 16.5477 12.503 16.5477 14.4079C16.5477 16.2877 15.9103 17.9169 14.611 19.2454C13.3117 20.5738 11.7427 21.2756 9.90411 21.3007L4.90303 21.3007L4.90303 25.0603C4.90303 26.4389 3.79985 27.5668 2.45151 27.5668Z" fill="#02BC6B"/>
<path fill-rule="evenodd" clip-rule="evenodd" d="M19.6376 4.60645C22.3461 7.29616 23.7109 10.646 23.7109 14.454C23.7109 18.198 22.4032 21.5448 19.7366 24.2429L15.9505 20.6008C17.6089 18.9228 18.4229 16.9026 18.4229 14.454C18.4229 11.9868 17.5844 9.96969 15.8862 8.28327L19.6376 4.60645Z" fill="#02897A"/>
<path fill-rule="evenodd" clip-rule="evenodd" d="M25.4343 -2.51649e-08C29.3354 3.98225 31.2984 8.91996 31.2984 14.587C31.2984 20.1656 29.4145 25.1003 25.5774 29.091L21.9235 25.4408C24.7817 22.468 26.1822 18.8625 26.1822 14.587C26.1822 10.2687 24.7345 6.66621 21.814 3.68493L25.4343 -2.51649e-08Z" fill="#035B81"/>
<path fill-rule="evenodd" clip-rule="evenodd" d="M0 21.3218L4.90303 21.3218L4.90303 25.0606C4.90303 26.4392 3.79985 27.5671 2.45151 27.5671C1.10318 27.5671 3.47914e-08 26.4392 2.54191e-08 25.0606L0 21.3218Z" fill="#028E37"/>
</svg>
