<svg width="40" height="41" viewBox="0 0 40 41" fill="none" xmlns="http://www.w3.org/2000/svg">
<ellipse cx="19.5616" cy="20.0161" rx="19.5616" ry="20" fill="#EDFFFC"/>
<path d="M24.4519 10.0161H14.6712C11.9703 10.0161 9.78076 12.2547 9.78076 15.0161V25.0161C9.78076 27.7775 11.9703 30.0161 14.6712 30.0161H24.4519C27.1528 30.0161 29.3423 27.7775 29.3423 25.0161V15.0161C29.3423 12.2547 27.1528 10.0161 24.4519 10.0161Z" stroke="#02897A" stroke-width="2" stroke-linecap="round" stroke-linejoin="round"/>
<path d="M23.474 19.3859C23.5947 20.2182 23.4556 21.0681 23.0766 21.8149C22.6976 22.5617 22.098 23.1673 21.3629 23.5456C20.6279 23.9239 19.7949 24.0555 18.9824 23.9219C18.17 23.7882 17.4194 23.396 16.8375 22.8011C16.2557 22.2062 15.8721 21.4388 15.7413 20.6081C15.6106 19.7775 15.7394 18.9258 16.1094 18.1743C16.4793 17.4228 17.0716 16.8097 17.8021 16.4222C18.5325 16.0347 19.3638 15.8925 20.1778 16.0159C21.0082 16.1418 21.7769 16.5374 22.3704 17.1442C22.9639 17.7511 23.3508 18.537 23.474 19.3859Z" stroke="#02897A" stroke-width="2" stroke-linecap="round" stroke-linejoin="round"/>
<path d="M24.9412 14.5161H24.9512" stroke="#02897A" stroke-width="2" stroke-linecap="round" stroke-linejoin="round"/>
</svg>
