<svg width="40" height="40" viewBox="0 0 40 40" fill="none" xmlns="http://www.w3.org/2000/svg">
<ellipse cx="20.1063" cy="20" rx="19.5616" ry="20" fill="#EDFFFC"/>
<path d="M30.8654 11.0101C29.9288 11.6855 28.8917 12.2022 27.7942 12.5401C27.2052 11.8476 26.4223 11.3567 25.5515 11.134C24.6807 10.9112 23.764 10.9673 22.9254 11.2945C22.0868 11.6218 21.3667 12.2045 20.8626 12.9638C20.3584 13.7231 20.0945 14.6224 20.1065 15.5401V16.5401C18.3877 16.5856 16.6845 16.1959 15.1487 15.4055C13.6128 14.6151 12.292 13.4487 11.3038 12.0101C11.3038 12.0101 7.3915 21.0101 16.1942 25.0101C14.1799 26.408 11.7803 27.109 9.34766 27.0101C18.1504 32.0101 28.9092 27.0101 28.9092 15.5101C28.9083 15.2315 28.8821 14.9537 28.831 14.6801C29.8292 13.6735 30.5337 12.4028 30.8654 11.0101V11.0101Z" stroke="#02897A" stroke-width="2" stroke-linecap="round" stroke-linejoin="round"/>
</svg>
